<?xml version="1.0" standalone="no"?>
<!DOCTYPE svg PUBLIC "-//W3C//DTD SVG 20010904//EN"
 "http://www.w3.org/TR/2001/REC-SVG-20010904/DTD/svg10.dtd">
<svg version="1.0" xmlns="http://www.w3.org/2000/svg"
 width="526.000000pt" height="500.000000pt" viewBox="0 0 526.000000 500.000000"
 preserveAspectRatio="xMidYMid meet">
<metadata>
Created by potrace 1.16, written by Peter Selinger 2001-2019
</metadata>
<g transform="translate(0.000000,500.000000) scale(0.100000,-0.100000)"
fill="#000000" stroke="none">
<path d="M1340 4214 c-338 -195 -627 -368 -642 -385 l-28 -29 0 -555 0 -554
36 -27 c35 -27 36 -27 67 -10 18 9 306 175 641 369 392 227 616 362 630 380
20 27 21 42 23 245 l2 217 148 86 148 87 3 210 c2 187 1 210 -14 216 -14 6
-91 -34 -259 -135 l-30 -18 0 110 c0 106 -1 111 -25 129 -14 11 -38 20 -55 20
-21 0 -209 -104 -645 -356z"/>
<path d="M2615 3830 c-11 -18 4 -76 24 -94 15 -14 18 -28 14 -84 -3 -47 -1
-72 9 -85 12 -16 13 -14 14 20 0 21 4 55 8 76 6 31 10 37 24 31 31 -14 126
-16 180 -4 30 6 57 9 60 5 4 -3 8 -41 10 -83 2 -42 7 -81 12 -85 4 -5 17 7 29
26 23 38 42 50 66 41 36 -14 32 122 -6 162 -12 13 -27 24 -32 24 -5 0 -18 11
-28 25 -29 36 -78 41 -186 20 -92 -18 -113 -17 -180 11 -6 3 -14 0 -18 -6z"/>
<path d="M3085 3384 c-23 -8 -50 -24 -62 -37 -12 -12 -35 -37 -51 -54 -22 -24
-39 -33 -62 -33 -52 0 -70 16 -70 59 l0 39 -57 5 c-91 7 -112 -20 -137 -179
-24 -151 -24 -149 35 -182 l50 -27 -5 -44 c-3 -24 -6 -75 -6 -112 l0 -68 -44
23 -45 24 -67 -19 c-37 -10 -72 -23 -77 -28 -10 -10 -13 -8 173 -118 132 -77
136 -79 175 -68 24 6 94 50 177 113 131 97 137 103 128 127 -10 26 -9 26 28
19 54 -11 110 -8 127 6 9 7 17 11 19 9 2 -2 7 -34 10 -70 l7 -66 -38 -33 c-21
-19 -101 -64 -178 -100 -77 -37 -146 -74 -154 -83 -12 -15 -10 -20 10 -36 19
-15 22 -23 14 -37 -6 -9 -82 -57 -169 -107 -124 -71 -162 -88 -175 -80 -9 5
-128 74 -266 153 -137 79 -261 151 -275 161 -23 16 -27 31 -49 178 -13 89 -28
161 -32 161 -5 0 -161 -88 -346 -195 -213 -123 -338 -201 -337 -210 0 -8 1
-258 2 -554 2 -516 3 -540 21 -546 10 -3 26 -3 35 1 14 6 16 47 16 440 0 239
3 434 8 434 4 0 169 -94 367 -208 344 -199 360 -210 363 -240 3 -26 10 -33 46
-47 24 -9 58 -15 77 -13 l34 3 0 -95 c0 -88 1 -95 20 -95 17 0 22 11 32 69 7
38 15 71 17 73 2 3 23 -7 46 -22 36 -22 41 -30 36 -51 -6 -21 -2 -27 28 -39
20 -8 54 -15 76 -15 32 0 62 -12 131 -52 l89 -52 2 -461 3 -460 30 0 30 0 5
462 c3 254 7 463 10 466 9 8 409 237 424 243 10 4 17 -12 26 -60 10 -55 16
-66 32 -66 19 0 20 4 13 63 -4 34 -8 71 -9 81 -1 15 34 40 149 107 l150 87 5
-432 5 -431 35 0 35 0 0 549 0 548 -150 87 c-110 64 -151 93 -153 108 -3 21
-5 21 -40 6 -76 -32 -183 3 -190 62 -10 79 136 124 211 65 l25 -20 27 112 c74
313 27 590 -124 731 -87 80 -160 102 -246 71z m-25 -1210 c69 -32 127 -59 129
-61 3 -2 -4 -10 -15 -18 -10 -8 -14 -15 -8 -15 5 0 18 -6 28 -13 17 -12 2 -23
-145 -107 -90 -51 -168 -93 -174 -93 -5 0 -69 34 -142 75 l-132 75 157 111
c86 60 162 109 167 107 6 -1 66 -29 135 -61z m107 -208 c8 -6 -16 -61 -28 -64
-12 -5 -12 -3 0 11 8 10 9 17 3 17 -12 0 -27 -19 -27 -34 0 -5 -6 -11 -13 -14
-8 -2 -10 2 -5 14 4 12 3 15 -6 10 -7 -5 -16 -19 -21 -32 -5 -13 -15 -24 -21
-24 -8 0 -8 4 1 15 7 8 8 15 2 15 -12 0 -34 -25 -27 -32 3 -3 -2 -11 -12 -19
-15 -12 -16 -12 -10 4 5 13 3 17 -5 15 -7 -3 -14 -14 -16 -26 -2 -12 -8 -22
-14 -22 -5 0 -8 7 -4 15 4 13 2 13 -14 5 -11 -6 -17 -16 -14 -24 3 -7 -2 -16
-12 -20 -11 -4 -15 -2 -11 8 4 10 0 12 -13 9 -24 -6 -240 116 -240 135 0 10 9
8 33 -6 126 -76 196 -112 211 -106 19 7 21 20 4 28 -7 3 -1 3 13 0 15 -3 30
-1 33 5 4 6 2 11 -4 11 -6 0 -8 5 -5 10 5 8 11 7 21 -1 11 -9 18 -8 29 1 13
11 13 15 3 22 -9 6 -5 7 9 3 28 -8 51 4 32 16 -7 4 -10 11 -6 15 4 4 12 3 19
-4 8 -8 17 -8 32 0 20 11 20 11 1 20 -18 7 -17 8 3 4 28 -5 52 2 52 16 0 5 -4
6 -10 3 -5 -3 -10 -1 -10 5 0 9 35 6 47 -4z"/>
<path d="M2182 2981 c-34 -21 -67 -42 -73 -48 -7 -7 19 -28 83 -66 l93 -56 72
24 c40 13 84 30 99 38 l27 14 -116 66 c-64 37 -118 67 -119 66 -2 0 -31 -18
-66 -38z"/>
<path d="M3965 2264 c19 -31 35 -60 37 -64 2 -4 25 -22 52 -39 52 -32 51 -39
-3 -20 -18 6 -34 9 -37 6 -3 -3 0 -23 6 -46 9 -33 19 -45 60 -68 28 -15 50
-31 50 -35 0 -3 -21 0 -46 8 l-46 14 4 -45 c2 -25 1 -45 -3 -45 -3 0 -24 9
-47 20 -49 24 -131 43 -166 38 -25 -3 -24 -4 25 -68 47 -60 55 -66 102 -74
l52 -9 -32 -10 c-18 -5 -33 -13 -33 -17 0 -19 60 -59 100 -66 l45 -7 -38 -10
c-27 -7 -37 -13 -33 -24 3 -8 -1 -24 -9 -36 -19 -27 -19 -106 0 -209 26 -148
65 -192 169 -192 43 0 72 6 90 17 50 33 82 127 92 274 7 89 6 92 -20 117 -25
26 -25 28 -10 51 l16 25 -41 0 c-22 0 -41 5 -41 10 0 6 6 10 13 10 42 0 87 23
106 54 28 44 27 46 -15 46 -51 0 -33 18 26 26 28 4 50 10 50 13 0 4 24 44 53
88 l53 80 -66 -15 c-69 -15 -145 -49 -196 -87 l-30 -23 -12 56 c-29 141 -141
259 -290 306 -19 6 -18 2 13 -50z"/>
<path d="M2100 1650 c0 -28 -66 -81 -138 -110 -42 -18 -83 -37 -89 -42 -19
-15 -16 -52 6 -79 17 -21 28 -24 84 -24 53 0 75 6 126 33 42 22 75 32 105 32
74 0 76 2 76 89 0 43 -3 80 -6 84 -3 3 -14 -3 -25 -14 -24 -24 -40 -24 -46 0
-3 11 -20 23 -42 30 -47 13 -51 14 -51 1z"/>
<path d="M2414 1473 c-21 -64 -35 -85 -96 -144 -55 -54 -68 -72 -68 -98 0 -40
46 -71 108 -71 61 0 98 22 120 73 11 24 31 55 45 68 18 17 28 43 37 92 12 68
7 97 -11 64 -12 -21 -29 -22 -29 -2 0 32 -96 48 -106 18z"/>
</g>
</svg>
